{
  "asset": {
    "version": "2.0",
    "generator": "ShaderEditor keyframe sample generator"
  },
  "scene": 0,
  "scenes": [
    {
      "name": "KeyframeCamera",
      "nodes": [
        0,
        1
      ]
    }
  ],
  "nodes": [
    {
      "name": "TargetCube",
      "mesh": 0
    },
    {
      "name": "OrbitCamera",
      "camera": 0,
      "translation": [
        0.0,
        1.5,
        4.0
      ],
      "rotation": [
        0.0,
        0.0,
        0.0,
        1.0
      ]
    }
  ],
  "cameras": [
    {
      "name": "OrbitCamera",
      "type": "perspective",
      "perspective": {
        "yfov": 0.7854,
        "znear": 0.1,
        "zfar": 100.0
      }
    }
  ],
  "meshes": [
    {
      "name": "Cube",
      "primitives": [
        {
          "attributes": {
            "POSITION": 0,
            "NORMAL": 1,
            "TEXCOORD_0": 2
          },
          "indices": 3,
          "material": 0,
          "mode": 4
        }
      ]
    }
  ],
  "materials": [
    {
      "name": "TargetMaterial",
      "pbrMetallicRoughness": {
        "baseColorFactor": [
          0.3,
          0.6,
          0.9,
          1.0
        ],
        "metallicFactor": 0.2,
        "roughnessFactor": 0.4
      }
    }
  ],
  "animations": [
    {
      "name": "CameraOrbit",
      "samplers": [
        {
          "input": 4,
          "output": 5,
          "interpolation": "LINEAR"
        },
        {
          "input": 4,
          "output": 6,
          "interpolation": "LINEAR"
        }
      ],
      "channels": [
        {
          "sampler": 0,
          "target": {
            "node": 1,
            "path": "translation"
          }
        },
        {
          "sampler": 1,
          "target": {
            "node": 1,
            "path": "rotation"
          }
        }
      ]
    }
  ],
  "buffers": [
    {
      "byteLength": 1064,
      "uri": "data:application/octet-stream;base64,"
    }
  ],
  "bufferViews": [
    {
      "buffer": 0,
      "byteOffset": 0,
      "byteLength": 288,
      "target": 34962
    },
    {
      "buffer": 0,
      "byteOffset": 288,
      "byteLength": 288,
      "target": 34962
    },
    {
      "buffer": 0,
      "byteOffset": 576,
      "byteLength": 192,
      "target": 34962
    },
    {
      "buffer": 0,
      "byteOffset": 768,
      "byteLength": 72,
      "target": 34963
    },
    {
      "buffer": 0,
      "byteOffset": 840,
      "byteLength": 28
    },
    {
      "buffer": 0,
      "byteOffset": 868,
      "byteLength": 84
    },
    {
      "buffer": 0,
      "byteOffset": 952,
      "byteLength": 112
    }
  ],
  "accessors": [
    {
      "bufferView": 0,
      "componentType": 5126,
      "count": 24,
      "type": "VEC3",
      "min": [
        -0.5,
        -0.5,
        -0.5
      ],
      "max": [
        0.5,
        0.5,
        0.5
      ]
    },
    {
      "bufferView": 1,
      "componentType": 5126,
      "count": 24,
      "type": "VEC3",
      "min": [
        -1.0,
        -1.0,
        -1.0
      ],
      "max": [
        1.0,
        1.0,
        1.0
      ]
    },
    {
      "bufferView": 2,
      "componentType": 5126,
      "count": 24,
      "type": "VEC2",
      "min": [
        0.0,
        0.0
      ],
      "max": [
        1.0,
        1.0
      ]
    },
    {
      "bufferView": 3,
      "componentType": 5123,
      "count": 36,
      "type": "SCALAR",
      "min": [
        0
      ],
      "max": [
        23
      ]
    },
    {
      "bufferView": 4,
      "componentType": 5126,
      "count": 7,
      "type": "SCALAR",
      "min": [
        0.0
      ],
      "max": [
        6.0
      ]
    },
    {
      "bufferView": 5,
      "componentType": 5126,
      "count": 7,
      "type": "VEC3",
      "min": [
        -3.4641016151377544,
        1.5,
        -4.0
      ],
      "max": [
        3.464101615137755,
        1.5,
        4.0
      ]
    },
    {
      "bufferView": 6,
      "componentType": 5126,
      "count": 7,
      "type": "VEC4",
      "min": [
        0.0,
        0.0,
        0.0,
        -1.0
      ],
      "max": [
        0.0,
        1.0,
        0.0,
        1.0
      ]
    }
  ]
}
